<svg width="349" height="207" viewBox="0 0 349 207" fill="none" xmlns="http://www.w3.org/2000/svg">
<path d="M62.3273 5.42422C55.5215 6.90821 50.4043 13.2023 50.4043 20.1617C50.4043 24.6648 52.7582 29.3215 56.4426 32.0848L57.9777 33.2105V41.7563V50.302H49.5856C40.3746 50.302 37.6625 50.5066 33.7223 51.4789C17.9613 55.4703 6.70352 68.6215 5.27071 84.8941C3.42852 105.107 18.4731 123.375 38.7883 125.576C42.1145 125.934 88.8855 125.934 92.2117 125.576C105.875 124.092 117.9 115.086 123.017 102.446C131.716 81.0051 119.64 57.1078 97.2777 51.4789C93.3887 50.5066 90.6766 50.302 81.4145 50.302H73.0223V41.8074V33.2105L74.5574 32.0848C78.2418 29.3215 80.5957 24.6648 80.5957 20.1617C80.5957 19.4965 80.4422 18.1148 80.2375 17.1426C78.5488 8.95508 70.5148 3.68438 62.3273 5.42422ZM92.007 65.807C96.7148 66.6258 100.655 68.6727 104.135 72.1523C107.614 75.632 109.661 79.5723 110.48 84.2801C111.145 88.1691 110.787 92.1606 109.405 95.9984C107.256 101.934 101.934 107.256 95.9984 109.405C92.007 110.838 92.3652 110.838 65.5 110.838C38.6348 110.838 38.9418 110.838 34.9504 109.405C29.0145 107.256 23.6926 101.934 21.5434 95.9984C16.7844 82.8984 24.6137 68.8262 38.3277 65.9094C40.1699 65.5512 42.1656 65.5 65.1418 65.5C86.1734 65.4488 90.3184 65.5 92.007 65.807Z" fill="white"/>
<path d="M41.0398 80.8004C39.9141 81.1074 37.9184 82.2844 37.2531 83.0008C35.9227 84.5359 35.4109 86.0199 35.4109 88.0156C35.4109 89.7043 35.4621 90.1137 36.1785 91.4953C37.4578 94.1562 39.8117 95.5379 42.8309 95.5891C44.2637 95.5891 44.8777 95.4867 45.9012 94.975C48.6645 93.6957 50.2508 91.1883 50.2508 88.1691C50.2508 85.15 48.818 82.7961 46.2594 81.5168C44.673 80.698 42.4727 80.391 41.0398 80.8004Z" fill="white"/>
<path d="M86.3781 80.8004C85.2523 81.1074 83.2566 82.2844 82.5914 83.0008C81.2609 84.5359 80.7492 86.0199 80.7492 88.0156C80.7492 89.7043 80.8004 90.1137 81.5168 91.4953C82.7961 94.1562 85.15 95.5379 88.1691 95.5891C89.6019 95.5891 90.216 95.4867 91.2394 94.975C94.0027 93.6957 95.5891 91.1883 95.5891 88.1691C95.5891 85.15 94.1562 82.7961 91.5977 81.5168C90.0113 80.698 87.8109 80.391 86.3781 80.8004Z" fill="white"/>
<path d="M35.528 206.536C29.896 206.536 24.456 205.896 19.208 204.616C13.96 203.336 9.64 201.672 6.248 199.624L13.544 183.112C16.744 184.968 20.296 186.472 24.2 187.624C28.168 188.712 32.008 189.256 35.72 189.256C37.896 189.256 39.592 189.128 40.808 188.872C42.088 188.552 43.016 188.136 43.592 187.624C44.168 187.048 44.456 186.376 44.456 185.608C44.456 184.392 43.784 183.432 42.44 182.728C41.096 182.024 39.304 181.448 37.064 181C34.888 180.488 32.488 179.976 29.864 179.464C27.24 178.888 24.584 178.152 21.896 177.256C19.272 176.36 16.84 175.176 14.6 173.704C12.424 172.232 10.664 170.312 9.32 167.944C7.976 165.512 7.304 162.504 7.304 158.92C7.304 154.76 8.456 150.984 10.76 147.592C13.128 144.136 16.616 141.384 21.224 139.336C25.896 137.288 31.688 136.264 38.6 136.264C43.144 136.264 47.624 136.744 52.04 137.704C56.456 138.664 60.424 140.136 63.944 142.12L57.128 158.536C53.8 156.872 50.568 155.624 47.432 154.792C44.36 153.96 41.352 153.544 38.408 153.544C36.232 153.544 34.504 153.736 33.224 154.12C31.944 154.504 31.016 155.016 30.44 155.656C29.928 156.296 29.672 157 29.672 157.768C29.672 158.92 30.344 159.848 31.688 160.552C33.032 161.192 34.792 161.736 36.968 162.184C39.208 162.632 41.64 163.112 44.264 163.624C46.952 164.136 49.608 164.84 52.232 165.736C54.856 166.632 57.256 167.816 59.432 169.288C61.672 170.76 63.464 172.68 64.808 175.048C66.152 177.416 66.824 180.36 66.824 183.88C66.824 187.976 65.64 191.752 63.272 195.208C60.968 198.6 57.512 201.352 52.904 203.464C48.296 205.512 42.504 206.536 35.528 206.536ZM87.2203 205V155.368H67.5403V137.8H129.556V155.368H109.876V205H87.2203ZM169.735 206.536C164.295 206.536 159.239 205.672 154.567 203.944C149.959 202.216 145.959 199.784 142.567 196.648C139.175 193.448 136.519 189.704 134.599 185.416C132.743 181.128 131.815 176.456 131.815 171.4C131.815 166.28 132.743 161.608 134.599 157.384C136.519 153.096 139.175 149.384 142.567 146.248C145.959 143.048 149.959 140.584 154.567 138.856C159.239 137.128 164.295 136.264 169.735 136.264C175.239 136.264 180.295 137.128 184.903 138.856C189.511 140.584 193.511 143.048 196.903 146.248C200.295 149.384 202.919 153.096 204.775 157.384C206.695 161.608 207.655 166.28 207.655 171.4C207.655 176.456 206.695 181.128 204.775 185.416C202.919 189.704 200.295 193.448 196.903 196.648C193.511 199.784 189.511 202.216 184.903 203.944C180.295 205.672 175.239 206.536 169.735 206.536ZM169.735 188.2C171.847 188.2 173.799 187.816 175.591 187.048C177.447 186.28 179.047 185.192 180.391 183.784C181.799 182.312 182.887 180.552 183.655 178.504C184.423 176.392 184.807 174.024 184.807 171.4C184.807 168.776 184.423 166.44 183.655 164.392C182.887 162.28 181.799 160.52 180.391 159.112C179.047 157.64 177.447 156.52 175.591 155.752C173.799 154.984 171.847 154.6 169.735 154.6C167.623 154.6 165.639 154.984 163.783 155.752C161.991 156.52 160.391 157.64 158.983 159.112C157.639 160.52 156.583 162.28 155.815 164.392C155.047 166.44 154.663 168.776 154.663 171.4C154.663 174.024 155.047 176.392 155.815 178.504C156.583 180.552 157.639 182.312 158.983 183.784C160.391 185.192 161.991 186.28 163.783 187.048C165.639 187.816 167.623 188.2 169.735 188.2ZM215.878 205V137.8H248.23C254.502 137.8 259.91 138.824 264.454 140.872C269.062 142.92 272.614 145.864 275.11 149.704C277.606 153.48 278.854 157.96 278.854 163.144C278.854 168.328 277.606 172.808 275.11 176.584C272.614 180.296 269.062 183.144 264.454 185.128C259.91 187.112 254.502 188.104 248.23 188.104H228.454L238.534 178.792V205H215.878ZM256.102 205L239.59 180.52H263.59L280.294 205H256.102ZM238.534 181.288L228.454 171.016H246.79C249.926 171.016 252.23 170.312 253.702 168.904C255.238 167.496 256.006 165.576 256.006 163.144C256.006 160.712 255.238 158.792 253.702 157.384C252.23 155.976 249.926 155.272 246.79 155.272H228.454L238.534 145V181.288ZM308.146 162.76H338.098V179.08H308.146V162.76ZM309.682 187.912H343.282V205H287.41V137.8H342.034V154.888H309.682V187.912Z" fill="white"/>
</svg>
